<svg xmlns="http://www.w3.org/2000/svg" fill="none" viewBox="0 0 100 100"><path fill="url(#a)" d="M52.311.644a4.74 4.74 0 0 0-4.715 0L8.674 23.249c-1.48.838-2.312 2.418-2.312 4.094v45.303c0 1.674.924 3.256 2.31 4.094l38.923 22.605a4.74 4.74 0 0 0 4.715 0l38.922-22.606c1.48-.837 2.311-2.419 2.311-4.094V27.343a4.85 4.85 0 0 0-2.31-4.094z"/><path fill="url(#b)" d="M91.326 23.25 52.219.643a6.3 6.3 0 0 0-1.202-.465L7.195 75.623c.363.445.801.823 1.295 1.117l39.107 22.605c1.109.65 2.403.837 3.605.464l41.14-75.722a2.9 2.9 0 0 0-1.016-.838"/><path fill="url(#c)" d="M91.327 76.739c1.109-.651 1.941-1.768 2.31-2.977L50.834.085c-1.11-.186-2.312-.093-3.328.558L8.675 23.156l41.88 76.84a6.5 6.5 0 0 0 1.758-.56z"/><defs><linearGradient id="a" x1="65.804" x2="30.258" y1="17.478" y2="89.541" gradientUnits="userSpaceOnUse"><stop stop-color="#3f873f"/><stop offset=".33" stop-color="#3f8b3d"/><stop offset=".637" stop-color="#3e9638"/><stop offset=".934" stop-color="#3da92e"/><stop offset="1" stop-color="#3dae2b"/></linearGradient><linearGradient id="b" x1="44.039" x2="143.216" y1="55.285" y2="-17.541" gradientUnits="userSpaceOnUse"><stop offset=".138" stop-color="#3f873f"/><stop offset=".402" stop-color="#52a044"/><stop offset=".713" stop-color="#64b749"/><stop offset=".908" stop-color="#6abf4b"/></linearGradient><linearGradient id="c" x1="4.937" x2="95" y1="49.98" y2="49.98" gradientUnits="userSpaceOnUse"><stop offset=".092" stop-color="#6abf4b"/><stop offset=".287" stop-color="#64b749"/><stop offset=".598" stop-color="#52a044"/><stop offset=".862" stop-color="#3f873f"/></linearGradient></defs></svg>
